<?xml version="1.0" standalone="no"?>
<!DOCTYPE svg PUBLIC "-//W3C//DTD SVG 20010904//EN"
 "http://www.w3.org/TR/2001/REC-SVG-20010904/DTD/svg10.dtd">
<svg version="1.0" xmlns="http://www.w3.org/2000/svg"
 width="1280.000000pt" height="640.000000pt" viewBox="0 0 1280.000000 640.000000"
 preserveAspectRatio="xMidYMid meet">
<metadata>
Created by potrace 1.15, written by Peter Selinger 2001-2017
</metadata>
<g transform="translate(0.000000,640.000000) scale(0.100000,-0.100000)"
fill="#ff5722" stroke="none">
<path d="M6118 5648 c-25 -18 -54 -46 -64 -63 -9 -16 -43 -66 -74 -110 -32
-44 -138 -195 -237 -335 -99 -140 -197 -279 -218 -308 l-38 -54 -40 49 c-79
95 -180 183 -210 183 -55 0 -147 -66 -147 -105 0 -7 -14 -43 -31 -80 -17 -37
-45 -111 -63 -164 -18 -53 -35 -101 -39 -107 -3 -6 -41 -14 -84 -17 -100 -8
-195 -30 -309 -72 l-90 -34 -80 39 c-235 115 -492 175 -724 169 -112 -4 -123
-6 -140 -27 -10 -12 -29 -22 -44 -22 -40 0 -131 -50 -231 -127 -122 -93 -750
-620 -905 -759 -195 -175 -340 -326 -340 -356 0 -20 -40 -63 -187 -199 -104
-96 -295 -275 -427 -399 l-238 -225 -117 -51 c-65 -28 -144 -65 -176 -82 -32
-18 -69 -32 -82 -32 -31 0 -193 -36 -229 -51 -19 -8 -95 -13 -219 -13 -160 -1
-196 -4 -230 -19 -49 -22 -80 -50 -96 -88 -16 -41 -5 -46 32 -15 45 38 63 31
67 -24 1 -25 5 -51 7 -59 8 -22 32 5 44 52 13 49 20 61 43 70 15 5 187 -11
197 -19 2 -2 -2 -10 -9 -19 -23 -28 -1 -28 34 -1 20 14 48 26 64 26 17 0 86
16 154 36 67 20 131 39 141 41 13 4 16 1 11 -13 -5 -13 4 -9 27 14 19 17 38
32 42 32 4 0 68 27 141 60 74 33 137 60 140 60 3 0 6 -18 6 -41 0 -53 15 -42
35 26 12 42 20 55 35 55 30 0 226 163 682 566 187 166 220 191 243 187 33 -7
59 -57 83 -161 l18 -77 13 69 c7 38 11 101 10 139 l-2 69 610 611 611 612 9
-40 8 -40 92 -7 c143 -11 301 -70 460 -170 35 -22 63 -42 63 -45 0 -4 -27 -30
-59 -60 -143 -129 -322 -385 -335 -479 -2 -16 -20 -65 -40 -109 -75 -170 -143
-458 -131 -560 3 -33 9 -83 11 -111 l6 -50 -41 -12 c-73 -22 -122 -77 -136
-155 -9 -45 8 -50 30 -8 16 31 51 49 66 34 5 -5 13 -33 19 -63 6 -29 13 -56
16 -59 11 -11 23 25 30 86 3 35 10 65 13 68 4 2 15 -28 25 -68 73 -304 322
-604 519 -624 44 -4 64 0 137 32 46 20 90 41 97 47 7 6 13 7 13 2 0 -12 -46
-179 -104 -377 -25 -87 -45 -161 -43 -166 1 -5 -30 -48 -69 -97 -39 -49 -89
-113 -110 -142 -26 -35 -66 -72 -119 -106 -44 -29 -109 -77 -145 -107 -63 -53
-67 -54 -155 -66 -101 -13 -204 -43 -252 -72 -35 -22 -68 -77 -78 -133 -8 -42
10 -62 24 -26 12 32 47 62 65 55 8 -3 20 -31 27 -62 7 -31 16 -58 21 -61 12
-8 30 46 27 86 -5 82 6 90 134 99 l89 6 -6 -27 c-7 -38 9 -35 36 6 12 18 40
43 62 55 23 12 88 62 146 111 58 49 108 90 112 90 4 0 8 -10 10 -22 2 -18 6
-12 18 22 8 27 48 87 97 148 45 57 89 112 97 124 18 25 31 18 46 -27 19 -57
29 -40 15 25 -7 35 -9 63 -4 66 30 18 108 242 180 517 l44 168 83 45 c46 24
87 42 93 39 5 -4 8 -1 7 7 -2 7 5 12 15 12 10 -1 16 1 13 4 -7 7 13 32 26 32
5 0 6 -5 2 -12 -4 -7 -3 -8 5 -4 6 4 9 11 7 15 -7 11 39 52 94 86 57 35 206
153 245 195 17 17 51 41 77 52 26 11 53 26 59 34 14 17 33 19 23 2 -4 -7 -3
-8 5 -4 6 4 9 11 6 16 -3 4 16 25 41 46 26 20 66 64 89 96 24 32 57 70 74 84
88 73 212 307 236 445 l7 36 61 -25 c50 -21 84 -26 177 -30 66 -2 139 1 170 7
70 15 157 55 193 89 64 60 107 188 107 314 0 56 4 78 13 78 9 0 10 -21 1 -102
-13 -121 -16 -131 -65 -225 l-37 -72 36 15 c20 8 44 21 52 29 9 8 19 12 23 9
4 -4 2 8 -3 27 -6 19 -9 50 -9 69 1 30 3 28 9 -15 9 -58 23 -97 49 -134 10
-14 23 -53 30 -86 6 -33 20 -71 30 -85 15 -22 18 -38 13 -98 -4 -66 -7 -72
-27 -72 -30 0 -100 -48 -165 -115 l-55 -56 86 40 c88 42 155 58 176 43 10 -6
7 -30 -12 -106 -47 -186 -85 -510 -85 -732 l0 -121 -35 -24 c-45 -31 -45 -42
0 -23 43 18 41 22 51 -116 8 -117 8 -123 0 -165 -4 -16 -3 -24 0 -17 12 26 21
9 49 -90 15 -57 39 -124 52 -150 12 -26 23 -62 23 -80 1 -31 2 -32 15 -14 14
18 17 17 70 -29 31 -26 63 -58 72 -72 15 -23 14 -26 -16 -64 -45 -55 -38 -78
12 -44 53 36 71 30 77 -25 l5 -45 23 35 c47 74 19 141 -112 273 -82 82 -93 98
-105 147 -8 30 -28 89 -46 131 -28 66 -33 92 -39 200 -5 99 -4 131 8 154 10
21 16 86 21 215 8 218 29 485 50 624 8 55 15 103 15 107 0 4 9 11 20 14 32 10
52 63 60 160 l7 90 56 57 c34 34 60 71 67 95 12 44 39 361 40 473 l0 75 46 24
c25 13 56 37 70 53 21 26 24 27 24 9 0 -11 -7 -46 -15 -78 -33 -128 -11 -244
51 -259 61 -15 189 17 278 71 62 37 71 41 61 26 -10 -17 109 51 165 94 47 36
105 94 180 180 17 20 17 22 -2 60 -12 22 -25 43 -31 46 -5 4 -8 12 -6 18 2 6
35 -41 72 -104 37 -63 91 -148 118 -190 l50 -77 -21 -55 c-11 -31 -19 -57 -17
-60 2 -2 16 15 31 37 14 22 28 40 30 40 2 0 29 -34 61 -75 32 -42 70 -86 85
-98 20 -16 46 -69 95 -192 37 -93 85 -204 106 -246 22 -41 39 -83 39 -92 0 -9
5 -19 11 -23 7 -4 10 3 9 17 -1 13 -2 27 -1 32 2 12 201 -92 208 -108 3 -8 9
-15 15 -15 5 0 6 5 3 10 -9 14 -3 13 77 -19 40 -16 89 -32 108 -36 19 -4 44
-15 54 -24 18 -15 19 -15 13 1 -7 19 3 23 74 33 52 8 59 2 78 -62 16 -56 31
-55 31 2 0 51 18 60 44 23 9 -12 18 -19 21 -16 9 9 -20 71 -42 91 -27 24 -125
38 -198 29 -51 -6 -73 -3 -150 22 -49 16 -144 55 -210 88 l-119 60 -73 207
c-40 113 -72 222 -73 242 0 64 -30 136 -196 471 l-162 326 45 49 c78 82 159
178 194 229 l33 49 7 -30 c9 -43 24 -76 51 -111 100 -136 143 -187 202 -241
212 -198 611 -381 838 -384 l63 -1 68 -74 c81 -87 208 -175 315 -217 104 -40
235 -49 303 -19 48 21 106 83 94 102 -10 16 -57 12 -99 -10 -35 -17 -41 -18
-60 -5 -25 18 -56 19 -56 3 -1 -7 -11 0 -24 15 -13 16 -31 27 -40 25 -10 -2
-22 7 -29 22 -7 14 -21 25 -32 25 -13 0 -21 8 -23 24 -2 13 -11 25 -21 28 -9
2 -22 18 -28 34 -6 16 -19 29 -27 29 -10 0 -19 12 -23 31 -3 17 -11 33 -18 35
-8 4 -11 20 -8 48 3 25 1 46 -5 50 -21 13 24 88 65 110 46 23 149 30 157 9 3
-7 19 -13 36 -13 23 0 30 -4 30 -19 0 -13 9 -21 30 -26 17 -4 30 -13 30 -21 0
-8 13 -17 30 -21 23 -4 29 -10 25 -23 -4 -13 3 -21 25 -30 18 -7 29 -18 26
-25 -2 -7 4 -21 15 -31 11 -10 17 -24 14 -32 -3 -8 2 -26 11 -40 13 -19 14
-30 5 -49 -13 -29 -15 -93 -2 -93 37 0 74 49 85 112 15 84 -54 261 -153 392
-61 80 -76 106 -61 106 5 0 10 -7 10 -15 0 -27 70 -95 98 -95 20 0 23 3 14 12
-7 7 -12 19 -12 27 0 9 -19 24 -46 35 -81 33 -41 26 71 -13 186 -65 397 -163
568 -265 70 -41 77 -43 82 -25 4 10 10 19 14 19 20 0 92 -30 130 -55 23 -14
46 -23 50 -20 9 5 103 -64 115 -84 4 -6 13 -8 20 -5 7 3 29 -15 50 -41 21 -25
46 -45 57 -45 13 0 29 -18 50 -56 20 -35 36 -53 45 -50 14 5 49 -33 59 -65 5
-13 12 -18 24 -14 14 4 25 -7 47 -50 21 -40 33 -53 45 -50 13 4 22 -8 39 -49
15 -35 28 -52 36 -49 14 5 44 -55 44 -88 0 -12 7 -19 19 -19 15 0 22 -12 32
-49 8 -31 19 -51 29 -54 12 -3 19 -19 23 -51 4 -26 14 -54 22 -62 9 -9 15 -33
15 -59 0 -24 5 -45 11 -47 7 -2 13 -47 15 -123 3 -110 5 -120 22 -123 28 -4
47 78 38 167 -6 65 -36 197 -58 256 -53 142 -165 332 -262 445 -30 36 -87 107
-127 158 -39 51 -79 98 -89 105 -9 7 -46 38 -81 71 -35 32 -82 70 -104 84 -22
14 -65 42 -95 62 -31 19 -84 44 -118 54 -34 11 -62 23 -62 27 0 16 -313 157
-433 195 -31 10 -56 19 -54 20 1 2 34 8 72 14 39 6 82 15 96 21 17 7 34 7 54
-1 34 -13 46 -5 20 14 -18 13 -15 17 44 55 35 22 68 41 72 41 5 0 25 -18 45
-40 50 -54 71 -54 44 0 -11 21 -20 44 -20 50 0 13 57 13 65 0 4 -6 11 -8 16
-4 28 17 -65 74 -118 74 -36 -1 -147 -48 -204 -87 -33 -22 -61 -32 -109 -37
-36 -4 -96 -14 -134 -23 -112 -25 -207 -3 -370 85 -66 35 -70 40 -91 97 -12
33 -34 84 -49 112 -14 29 -22 54 -18 56 15 10 202 58 297 76 238 46 492 71
736 71 l166 0 -4 24 c-5 23 -2 24 65 31 39 4 84 4 101 0 21 -4 31 -3 31 5 0
13 84 5 127 -11 13 -5 23 -4 25 2 2 7 26 3 63 -9 35 -12 64 -17 70 -12 11 9
74 -16 110 -43 14 -11 23 -12 36 -4 13 8 26 5 54 -12 27 -15 41 -19 50 -11 9
8 27 1 65 -25 40 -27 56 -33 66 -24 14 11 55 -11 84 -46 10 -12 16 -13 26 -4
11 9 24 3 59 -25 25 -21 49 -35 54 -32 5 4 27 -10 48 -31 21 -20 45 -36 55
-34 9 1 28 -14 43 -34 15 -19 33 -35 40 -35 7 0 25 -17 41 -37 15 -21 40 -50
54 -65 48 -50 57 -63 64 -85 4 -13 11 -23 15 -23 4 0 14 -18 21 -40 16 -50 50
-57 50 -11 0 41 -21 86 -78 166 -127 179 -368 350 -637 450 -55 20 -123 48
-152 62 -59 27 -149 53 -273 78 -98 20 -339 18 -377 -3 -15 -8 -23 -9 -23 -2
0 14 -73 13 -236 -5 -275 -29 -572 -89 -864 -175 -154 -46 -141 -46 -175 1
-16 23 -70 80 -120 127 -49 47 -81 80 -69 74 11 -6 69 -61 127 -122 89 -92
111 -110 128 -105 20 7 19 9 -17 47 -38 39 -158 138 -204 168 -12 8 -37 26
-54 40 -28 22 -29 22 -12 2 11 -12 15 -22 9 -22 -16 0 -44 36 -36 45 5 4 3 5
-4 1 -6 -3 -49 18 -95 48 -104 67 -139 85 -258 129 -121 45 -237 67 -355 67
-101 0 -225 -26 -282 -60 -39 -23 -32 -25 -134 52 -54 41 -85 58 -106 58 -36
0 -88 -33 -163 -104 -30 -28 -69 -64 -86 -79 l-30 -27 -85 32 c-81 32 -89 33
-229 32 -128 -1 -156 -4 -235 -28 -109 -33 -232 -90 -311 -143 -132 -90 -245
-245 -260 -357 l-7 -46 -73 0 c-40 0 -79 -3 -87 -6 -11 -4 -19 6 -27 33 -31
95 -168 421 -230 548 -74 152 -124 226 -170 250 -39 20 -39 20 -92 -17z m-23
-333 c24 -67 192 -414 238 -492 l36 -63 -78 -77 c-67 -66 -86 -94 -129 -183
-60 -123 -91 -228 -100 -342 l-7 -81 -42 -12 c-23 -7 -58 -23 -78 -35 -20 -12
-37 -21 -39 -19 -2 2 -18 41 -35 87 -41 109 -126 283 -196 404 l-56 97 84 148
c81 142 283 487 343 585 16 26 31 44 35 40 3 -4 14 -29 24 -57z m2200 -120
c-35 -112 -35 -112 -79 -66 l-38 39 47 59 c26 32 50 64 53 71 4 11 9 9 23 -5
18 -18 18 -20 -6 -98z m-3051 -594 c59 -104 69 -138 39 -127 -148 55 -142 48
-123 136 18 82 20 90 24 90 2 0 29 -45 60 -99z m2492 -499 c-35 -70 -138 -195
-208 -253 -33 -27 -61 -49 -64 -49 -3 0 34 37 81 82 87 83 158 172 191 240 10
21 19 36 21 34 3 -2 -7 -26 -21 -54z"/>
<path d="M5746 4725 c-16 -9 -35 -14 -42 -11 -8 3 -28 -19 -49 -54 l-36 -59
62 -106 c68 -118 151 -291 193 -401 l27 -72 38 21 c36 20 37 22 25 46 -8 14
-43 87 -78 161 -36 74 -86 173 -111 220 -57 106 -57 149 2 263 6 10 2 9 -31
-8z"/>
<path d="M8237 5229 c-27 -33 -47 -61 -45 -62 2 -1 17 -15 35 -30 l31 -29 25
83 c37 120 27 128 -46 38z"/>
<path d="M5243 4563 c4 -3 1 -16 -7 -28 -14 -21 -12 -23 20 -38 19 -9 34 -12
34 -7 0 6 -5 10 -12 10 -6 0 -9 3 -5 6 7 7 -20 64 -30 64 -3 0 -3 -3 0 -7z"/>
<path d="M6341 5556 c-10 -11 -3 -33 32 -103 60 -118 127 -275 198 -457 l58
-151 38 4 c21 1 39 4 40 5 2 1 -15 47 -36 102 -147 378 -265 614 -309 614 -5
0 -15 -6 -21 -14z"/>
<path d="M8380 5467 c0 -2 6 -10 14 -16 11 -9 16 -9 22 1 4 7 4 10 -1 6 -4 -4
-14 -3 -22 3 -7 6 -13 9 -13 6z"/>
<path d="M5438 4849 c44 -55 47 -57 60 -37 13 18 12 23 -20 55 -19 19 -46 36
-60 37 -25 3 -24 1 20 -55z"/>
<path d="M9829 4888 l-37 -10 38 -81 c21 -45 42 -95 45 -110 5 -20 21 -35 56
-52 58 -30 62 -30 49 -7 -24 43 -69 154 -81 201 -7 29 -18 55 -24 60 -5 4 -26
4 -46 -1z"/>
<path d="M8147 4661 c-26 -37 -83 -105 -126 -152 l-79 -84 106 -205 c58 -113
110 -208 115 -211 5 -3 8 -9 8 -13 -3 -20 0 -26 11 -20 8 5 9 2 5 -10 -4 -9
-3 -15 2 -12 8 6 42 -41 71 -97 8 -16 26 -41 39 -55 58 -62 28 21 -105 287
-179 356 -178 348 -29 502 l57 59 -14 38 -13 39 -48 -66z"/>
<path d="M9728 4238 c-30 -12 -48 -27 -48 -37 0 -9 -7 -26 -15 -38 -10 -15
-12 -24 -4 -28 6 -4 9 -24 8 -45 -2 -21 2 -44 8 -52 6 -7 14 -23 17 -35 4 -13
14 -23 22 -23 8 0 19 -12 25 -27 5 -15 19 -33 29 -40 11 -8 20 -20 20 -27 0
-8 11 -17 25 -20 13 -3 29 -15 35 -26 6 -11 18 -20 27 -20 14 0 13 3 -3 18
-11 9 -31 33 -44 52 -13 19 -30 41 -37 48 -25 26 -46 123 -40 191 5 71 24 124
40 114 6 -3 7 -1 3 5 -9 16 -13 15 -68 -10z"/>
<path d="M3143 4091 c-23 -16 -44 -27 -49 -23 -4 4 -4 1 0 -5 4 -8 2 -13 -6
-13 -7 0 -185 -172 -396 -383 -355 -355 -381 -383 -348 -379 31 4 79 48 415
386 348 350 440 446 428 446 -2 0 -22 -13 -44 -29z"/>
<path d="M7050 4005 c-7 -9 -33 -28 -57 -42 l-43 -25 0 -66 c0 -37 -7 -153
-15 -259 -15 -198 -24 -238 -68 -295 -24 -30 -24 -31 -9 -92 l16 -61 11 45
c15 58 36 96 80 143 19 22 39 55 44 75 9 32 35 279 33 307 -5 72 1 181 12 225
17 59 16 69 -4 45z"/>
<path d="M5734 3363 c-31 -137 -127 -324 -212 -412 -35 -37 -73 -79 -85 -96
-12 -16 -46 -56 -76 -88 l-55 -58 50 28 c50 28 127 102 244 233 101 114 155
201 196 320 10 30 23 57 27 59 7 3 -66 41 -79 41 -2 0 -6 -12 -10 -27z"/>
<path d="M5198 2646 c-26 -13 -69 -44 -95 -69 -65 -62 -167 -142 -228 -179
-27 -16 -58 -41 -69 -55 l-19 -25 29 18 c32 20 102 73 121 90 6 6 49 36 95 67
46 31 103 74 128 95 25 22 56 49 70 61 31 25 27 25 -32 -3z"/>
<path d="M4610 2216 c-41 -24 -75 -47 -77 -52 -2 -5 17 -10 42 -12 39 -2 47 1
54 21 5 13 21 37 36 55 15 18 25 32 23 31 -1 0 -37 -19 -78 -43z"/>
</g>
</svg>
